<svg xmlns="http://www.w3.org/2000/svg" viewBox="0 0 64 64"><path d="M32,33A17.019,17.019,0,0,0,15,50V60a1,1,0,0,0,1,1H48a1,1,0,0,0,1-1V50A17.019,17.019,0,0,0,32,33Z"/><circle cx="32" cy="22" r="10"/><path d="M52.511 3.3A1 1 0 0 0 51.089 4.7a27.491 27.491 0 0 1 0 38.594A1 1 0 1 0 52.511 44.7a29.49 29.49 0 0 0 0-41.406zM5 24A27.286 27.286 0 0 1 12.911 4.7 1 1 0 1 0 11.489 3.3a29.49 29.49 0 0 0 0 41.406A1 1 0 1 0 12.911 43.3 27.286 27.286 0 0 1 5 24z"/><path d="M54 24a22.2 22.2 0 0 1-6.451 15.721 1 1 0 0 0 1.422 1.407 24.383 24.383 0 0 0 0-34.256 1 1 0 0 0-1.422 1.407A22.2 22.2 0 0 1 54 24zM15.029 41.128a1 1 0 0 0 1.422-1.407 22.381 22.381 0 0 1 0-31.442 1 1 0 0 0-1.422-1.407 24.383 24.383 0 0 0 0 34.256z"/><path d="M44.028 37.57a1 1 0 0 0 1.414-.009 19.323 19.323 0 0 0 0-27.122 1 1 0 0 0-1.423 1.4 17.324 17.324 0 0 1 0 24.312A1 1 0 0 0 44.028 37.57zM18.558 37.561a1 1 0 1 0 1.423-1.405 17.324 17.324 0 0 1 0-24.312 1 1 0 0 0-1.423-1.4 19.323 19.323 0 0 0 0 27.122z"/></svg>