<svg xmlns="http://www.w3.org/2000/svg" width="48" height="48"><path style="line-height:normal;text-indent:0;text-align:start;text-decoration-line:none;text-decoration-style:solid;text-decoration-color:#000;text-transform:none;block-progression:tb;isolation:auto;mix-blend-mode:normal" d="M-82.473 439.915a.459.459 0 0 0-.08.014l-3.188.854h1.027l.018-.007 1.78-.478c.312-.083.631.12.716.437l.013.047h.273l-.154-.573a.391.391 0 0 0-.405-.294zm-.312.63a.267.267 0 0 0-.062.01l-.849.227h1.23c-.051-.15-.181-.244-.319-.237zm-3.94.5-.242.066a.393.393 0 0 0-.179.332v8.995c0 .223.176.397.398.397h5.555a.394.394 0 0 0 .399-.397v-8.995a.394.394 0 0 0-.399-.397h-5.532zm-.643.173-.553.148a.392.392 0 0 0-.28.486l.791 2.953v-1.05a.13.13 0 0 1-.02-.041l-.394-1.472c-.085-.318.091-.653.402-.736l.012-.003v-.06c0-.08.016-.155.042-.225zm1.064.093h4.668c.322 0 .576.277.576.606v8.049c0 .329-.254.605-.576.605h-4.668c-.322 0-.576-.276-.576-.605v-8.049c0-.329.254-.606.576-.606zm0 .264c-.17 0-.312.146-.312.342v8.049c0 .195.141.342.312.342h4.668c.17 0 .312-.147.312-.342v-8.049c0-.196-.142-.342-.312-.342h-4.668zm-1.106.209c-.13.065-.201.223-.157.39l.157.586v-.976zm-.87.802a.333.333 0 0 0-.04.407l.28.486-.24-.893zm9.721.866a.658.658 0 0 0-.467.196l-1.31 1.31a.659.659 0 0 0-.194.452v.03a.657.657 0 0 0 .194.452l1.309 1.309a.66.66 0 0 0 .452.195h.031a.658.658 0 0 0 .452-.194l1.31-1.31a.656.656 0 0 0 0-.935l-1.31-1.31a.659.659 0 0 0-.467-.195zm0 .266a.398.398 0 0 1 .28.676.4.4 0 0 1-.56.002.4.4 0 0 1 0-.562.395.395 0 0 1 .28-.116zm0 .263a.129.129 0 0 0-.093.04.13.13 0 0 0 0 .187.13.13 0 0 0 .187 0 .129.129 0 0 0 0-.186h-.001a.133.133 0 0 0-.093-.04zm-5.429.106a.132.132 0 0 1 .096.037l1.143 1.08c.185.177.313.396.353.627a.793.793 0 0 1-.183.668c-.267.339-.735.364-1.147.174.025.163.05.331.086.473.052.202.125.362.186.421a.132.132 0 0 1-.092.23h-.848a.132.132 0 0 1-.092-.23c.062-.06.128-.214.172-.414.03-.137.052-.304.074-.466a.807.807 0 0 1-.303.11.133.133 0 0 1-.097.046c-.005 0-.008-.004-.012-.004a.98.98 0 0 1-.576-.19.801.801 0 0 1-.328-.722c.016-.267.135-.53.326-.71l1.157-1.093a.135.135 0 0 1 .085-.037zm6.74.94c.1 0 .202.04.28.116a.4.4 0 0 1 .001.562.402.402 0 0 1-.564 0 .4.4 0 0 1 .282-.678zm-2.62.001c.102 0 .204.038.28.115h.001a.398.398 0 0 1-.563.562.398.398 0 0 1 0-.56.399.399 0 0 1 .282-.117zm1.31 0c.101 0 .203.038.28.115a.402.402 0 0 1 0 .563.398.398 0 0 1-.562-.562.399.399 0 0 1 .281-.116zm-1.31.263a.133.133 0 0 0-.094.04.13.13 0 0 0 0 .187.13.13 0 0 0 .187 0 .131.131 0 0 0 0-.187.132.132 0 0 0-.093-.04zm2.618 0a.13.13 0 0 0-.092.04.13.13 0 0 0-.001.186.131.131 0 0 0 .188 0 .13.13 0 0 0-.001-.186h-.001a.13.13 0 0 0-.093-.04zm-1.309.001a.134.134 0 0 0-.093.04.128.128 0 0 0 0 .186.13.13 0 0 0 .186 0 .131.131 0 0 0 0-.187.129.129 0 0 0-.093-.039zm-1.971.78v.893l.243.904a.928.928 0 0 1 .206-.25l-.402-1.5-.04-.04-.007-.008zm1.971.265c.102 0 .204.038.281.115a.401.401 0 0 1 0 .563.398.398 0 0 1-.562-.562.399.399 0 0 1 .281-.116zm0 .264a.134.134 0 0 0-.093.04.128.128 0 0 0 0 .186.13.13 0 0 0 .186 0 .13.13 0 0 0 0-.186.129.129 0 0 0-.093-.04zm-1.481.147.193.722a.911.911 0 0 1 .173-.055.37.37 0 0 0-.038-.098l-.328-.569zm.466.28.09.157c.04.067.06.138.073.21h.206l-.01-.006-.359-.36zm.089.633a.657.657 0 0 0-.66.662v1.852c0 .369.29.662.66.662h1.853c.368 0 .66-.293.66-.662v-1.852a.657.657 0 0 0-.66-.662h-1.853zm.002.264a.4.4 0 0 1 .397.398.398.398 0 0 1-.795 0c0-.217.18-.398.398-.398zm-1.047.065v.976a.297.297 0 0 0 .119-.117v-.433a.15.15 0 0 1-.013-.032l-.106-.394zm1.047.2a.131.131 0 0 0-.133.133c0 .075.056.131.131.131a.13.13 0 0 0 .133-.13.13.13 0 0 0-.131-.134zm.926.66a.398.398 0 0 1 0 .795.4.4 0 0 1-.399-.396c0-.218.181-.399.399-.399zm0 .266a.131.131 0 0 0-.133.133.13.13 0 0 0 .133.131c.074 0 .13-.057.13-.131a.13.13 0 0 0-.13-.133zm-1.854.087a.554.554 0 0 1-.106.041l-.013.003v.273l.119-.032v-.285zm2.78.575c.217 0 .396.18.396.397 0 .217-.18.396-.397.396a.398.398 0 0 1-.396-.396c0-.218.179-.397.396-.397zm0 .264a.131.131 0 0 0-.134.133c0 .074.059.133.133.133a.131.131 0 0 0 .133-.133.131.131 0 0 0-.133-.133z" color="#000" font-family="sans-serif" font-weight="400" overflow="visible" transform="translate(335 -1658.95) scale(3.77953)"/></svg>