<svg xmlns="http://www.w3.org/2000/svg" data-name="Layer 1" viewBox="0 0 512 512"><path fill="#3c3b41" d="m349.17 474.31-16.8 28.47v1.52H504.5V490c0-8.65-5.68-15.66-12.69-15.66H349.17Z"/><path fill="#8b8992" d="m349.17 474.26-9.5-6.24 10.45-39.88 3.47-9.07a12.15 12.15 0 0 1 11.28-7.88H472a12.14 12.14 0 0 1 11.29 7.81L498 457.24c3 7.87-2.25 16.35-10.24 17a8.77 8.77 0 0 1-1 .05H362.44Z"/><path fill="#c8c6cb" d="M463.68 411.18h-90.49l12.12-152.33h66.25l12.12 152.33z"/><rect width="105.05" height="29.99" x="365.91" y="228.87" fill="#3c3b41" rx="9.79"/><path fill="#8b8992" d="M460.86 145.65v39.66h-25.4v-39.66h-34v39.66H376v-39.66h-24.23v74.89a8.21 8.21 0 0 0 8.08 8.33H477a8.21 8.21 0 0 0 8.09-8.33v-74.89Z"/><path fill="#78777f" d="M361.45 145.65h14.56v39.66h-14.56z"/><path fill="#2a2a2c" d="M182.79 474.51h-14.56l18.16 29.99h14.57l-18.17-29.99z"/><path fill="#3c3b41" d="M193.67 504.5H7.5v-14.33c0-8.64 6.13-15.66 13.72-15.66h154.29Z"/><path fill="#8b8992" d="m175.51 474.46-23.95.05H26.78c-.38 0-.75 0-1.12-.05-8.65-.73-14.35-9.92-11.08-18.41l15.86-41.33a13.11 13.11 0 0 1 12.19-8.54h115.9a13 13 0 0 1 10 4.82l14.12 60.47h-.07Z"/><path fill="#c8c6cb" d="M149.52 406.23H51.65l13.11-164.76h71.65l13.11 164.76z"/><rect width="113.63" height="29.99" x="43.77" y="211.48" fill="#3c3b41" rx="10.18"/><path fill="#8b8992" d="M150.09 211.49H51.71l-1.77-1.9c-19.95-21.43-17.17-56 5.94-73.77l37.44-37.37a10.69 10.69 0 0 1 7.54-3.14 10.65 10.65 0 0 1 7.64 3.26l37.6 38.61c22.92 18.41 24.8 53.41 4 74.31Z"/><path fill="#3c3b41" d="m50.26 140.88 24.7 25.44 21.62-21.97-24.23-24.96-22.09 21.49z"/><path fill="#c8c6cb" d="M296.24 40.41h-26.71V12.5a4.94 4.94 0 0 0-4.86-5h-17.34a4.94 4.94 0 0 0-4.86 5v27.91h-26.71a4.93 4.93 0 0 0-4.85 5v17.25a4.93 4.93 0 0 0 4.85 5h26.71v36.14h27.06V67.66h26.71a4.93 4.93 0 0 0 4.85-5V45.41a4.93 4.93 0 0 0-4.85-5Z"/><path fill="#8b8992" d="M299.15 103.8h-86.76c-9.63 0-16.6 9.45-14 19l16.88 62.69h79.58l18.27-62.36c2.79-9.63-4.2-19.33-13.97-19.33Z"/><path fill="#3c3b41" d="M305.66 148.45a7.08 7.08 0 0 0-1.55-.17H207.9a6.93 6.93 0 0 0-2.55.48l3.91 14.52h92.07Z"/><path fill="#2a2a2c" d="M304.11 148.28h-14.56a7.15 7.15 0 0 1 1.55.17l-4.33 14.83h14.56l4.33-14.83a7.08 7.08 0 0 0-1.55-.17Z"/><path fill="#3c3b41" d="M168.08 474.26h175.84a15.46 15.46 0 0 1 15.46 15.46v14.58H152.62v-14.58a15.46 15.46 0 0 1 15.46-15.46Z"/><path fill="#8b8992" d="M320.36 398.42H191.64a14.58 14.58 0 0 0-13.54 9.48l-17.61 45.91c-3.78 9.84 3.26 20.5 13.54 20.5H338c10.28 0 17.32-10.66 13.54-20.5L333.9 407.9a14.58 14.58 0 0 0-13.54-9.48Z"/><rect width="126.19" height="29.99" x="192.9" y="185.49" fill="#3c3b41" rx="10.73"/><path fill="#c8c6cb" d="M310.35 398.41h-108.7l14.56-182.97h79.58l14.56 182.97z"/><path fill="#070606" d="M503.66 471.66a20 20 0 0 0 1.08-17l-15.06-38.23a19.86 19.86 0 0 0-18.55-12.64h-1.67l-11.22-137.32h1.9a17.45 17.45 0 0 0 17.4-17.47v-10.09a17.07 17.07 0 0 0-.2-2.49 15.82 15.82 0 0 0 14.73-15.77v-74.92a7.49 7.49 0 0 0-7.48-7.5h-24.92a7.49 7.49 0 0 0-7.48 7.5v32.18h-11.14v-32.18a7.49 7.49 0 0 0-7.48-7.5h-35a7.49 7.49 0 0 0-7.48 7.5v32.18H380v-32.18a7.49 7.49 0 0 0-7.48-7.5h-24.95a7.49 7.49 0 0 0-7.49 7.5v74.92a15.82 15.82 0 0 0 14.73 15.77 18.59 18.59 0 0 0-.19 2.49V249A17.44 17.44 0 0 0 372 266.47h1.91L362.69 403.8H361a19.79 19.79 0 0 0-16 8.12l-2.6-6.61a22.32 22.32 0 0 0-20.88-14.23h-3.39l-13.73-168h5a18.39 18.39 0 0 0 18.35-18.39v-8.21a18.4 18.4 0 0 0-18.35-18.4h-4l5.89-19.54a7.9 7.9 0 0 0 .32-1.08L327 106a7.49 7.49 0 0 0-7.16-9.67h-43.09V75.18h25a7.49 7.49 0 0 0 7.48-7.5V40.43a7.49 7.49 0 0 0-7.48-7.5h-25V7.5a7.49 7.49 0 0 0-7.48-7.5h-27.8A7.49 7.49 0 0 0 234 7.5v25.43h-25a7.49 7.49 0 0 0-7.48 7.5v27.25a7.49 7.49 0 0 0 7.48 7.5h25v21.16h-43.1a7.49 7.49 0 0 0-7.21 9.5l20 72.22h-2.29a18.4 18.4 0 0 0-18.35 18.4v8.21a18.39 18.39 0 0 0 18.35 18.39h5l-13.74 168h-3.39a22.27 22.27 0 0 0-18.18 9.31 20.8 20.8 0 0 0-8.36-1.75h-2.37l-12.29-149.79h3.13A17.85 17.85 0 0 0 169 231v-9.32a17.76 17.76 0 0 0-4.12-11.4 57 57 0 0 0-10-78.9L116.56 93a18.58 18.58 0 0 0-26.09-.18l-23.11 22.49a7.32 7.32 0 0 0-1.47 1.1L50.4 131.47a57 57 0 0 0-8.71 78.47 17.72 17.72 0 0 0-4.42 11.73V231a17.84 17.84 0 0 0 17.79 17.84h3.14L46 398.64h-2.42a20.83 20.83 0 0 0-19.48 13.28L7.79 453.28a21 21 0 0 0 1.29 18.1 22.39 22.39 0 0 0-9.08 18v15.12a7.49 7.49 0 0 0 7.48 7.5h497a7.49 7.49 0 0 0 7.48-7.5v-15.69a21.79 21.79 0 0 0-8.3-17.15ZM355.87 221.48a.83.83 0 0 1-.82-.83v-67.42H365v32.18a7.49 7.49 0 0 0 7.48 7.5h26.1a7.49 7.49 0 0 0 7.49-7.5v-32.18h20v32.18a7.49 7.49 0 0 0 7.48 7.5h26.1a7.49 7.49 0 0 0 7.49-7.5v-32.18h9.95v67.42a.83.83 0 0 1-.83.83H355.87Zm16.14 30a2.44 2.44 0 0 1-2.43-2.44v-10.13a2.43 2.43 0 0 1 2.37-2.43h88.26a2.43 2.43 0 0 1 2.36 2.43V249a2.44 2.44 0 0 1-2.43 2.44H372Zm82.44 152.32h-76.74l11.22-137.33h54.29ZM216.51 60.18V47.93h25a7.49 7.49 0 0 0 7.48-7.5V15h12.84v25.43a7.49 7.49 0 0 0 7.48 7.5h25v12.25h-25a7.49 7.49 0 0 0-7.48 7.5v28.66H249V67.68a7.49 7.49 0 0 0-7.48-7.5Zm-15.8 51.16h109.08l-11.14 37-87.66.13Zm93.42 52-4.43 14.71h-70.53l-4-14.59Zm-92.73 44.72a3.39 3.39 0 0 1-3.39-3.39v-8.21a3.4 3.4 0 0 1 3.39-3.4h107.94a3.4 3.4 0 0 1 3.39 3.4v8.21a3.39 3.39 0 0 1-3.39 3.39h-95.65Zm101.7 183h-95.46l13.73-168h68Zm-122.43 23.83a3.42 3.42 0 0 0 .13-.34l1.47-3.73a7.45 7.45 0 0 1 7-4.74H321.5a7.44 7.44 0 0 1 7 4.74l18.1 45.92a7.5 7.5 0 0 1-6 10.2H170.2a7.35 7.35 0 0 1-5.26-3.22 7.45 7.45 0 0 1-.77-7ZM62.41 141l8.77-8.52L84 145.29l-8.74 8.63-12.9-12.87ZM45 171.76a41.94 41.94 0 0 1 7-19.9l17.89 17.93a7.46 7.46 0 0 0 10.54 0l19.4-19.16a7.52 7.52 0 0 0 0-10.65l-17.93-18 18.95-18.42a3.73 3.73 0 0 1 5.11 0l38.64 38.64a7.87 7.87 0 0 0 .68.6 42 42 0 0 1 5.52 60.93H56.11A42 42 0 0 1 45 171.76Zm10.05 62.07a2.84 2.84 0 0 1-2.82-2.83v-9.32a2.84 2.84 0 0 1 2.83-2.84h96.14a2.84 2.84 0 0 1 2.83 2.84V231a2.84 2.84 0 0 1-2.83 2.84Zm90.25 164.81H61l12.21-149.79h59.85Zm-3.65 91.5V497H15v-7.62a7.38 7.38 0 0 1 7.32-7.38h120.8a23.14 23.14 0 0 0-1.47 8.14ZM150 467H27.29a6 6 0 0 1-5.58-8.22L38 417.44a6 6 0 0 1 5.57-3.8H162.69a5.88 5.88 0 0 1 2.21.43l-14.64 37.16A22.54 22.54 0 0 0 150 467Zm204.15 30H156.61v-6.86a8.2 8.2 0 0 1 7.27-8.14H339.6q.78 0 1.53-.06h3.39l.83.06h1.58a8.2 8.2 0 0 1 7.19 8.13Zm6.64-30a22.54 22.54 0 0 0-.28-15.77l-7.81-19.82 3.72-9.45a5 5 0 0 1 4.58-3.16h7.73a7.7 7.7 0 0 0 .83.05h93a7.55 7.55 0 0 0 .83-.05h7.73a5 5 0 0 1 4.63 3.15l15.07 38.24a5 5 0 0 1-4.46 6.81ZM497 497H369v-6.86a23.08 23.08 0 0 0-1.47-8.13h122.71a6.81 6.81 0 0 1 6.8 6.81Z"/></svg>